<svg width="15" height="16" viewBox="0 0 15 16" fill="none" xmlns="http://www.w3.org/2000/svg">
<path d="M0 8C0 6.01088 0.790176 4.10322 2.1967 2.6967C3.60322 1.29018 5.51088 0.5 7.5 0.5C9.48912 0.5 11.3968 1.29018 12.8033 2.6967C14.2098 4.10322 15 6.01088 15 8C15 9.98912 14.2098 11.8968 12.8033 13.3033C11.3968 14.7098 9.48912 15.5 7.5 15.5C5.51088 15.5 3.60322 14.7098 2.1967 13.3033C0.790176 11.8968 0 9.98912 0 8ZM7.03125 1.50969C6.40312 1.70094 5.77969 2.27844 5.26219 3.24875C5.09178 3.57138 4.94514 3.90602 4.82344 4.25H7.03125V1.50969ZM3.83438 4.25C3.99079 3.75207 4.19159 3.2692 4.43437 2.80719C4.59754 2.5013 4.78469 2.20882 4.99406 1.9325C3.83264 2.41444 2.83332 3.21858 2.11406 4.25H3.83438ZM3.28875 7.53125C3.31687 6.70906 3.41812 5.92063 3.58125 5.1875H1.56938C1.22067 5.9238 1.01212 6.7186 0.954375 7.53125H3.28875ZM4.54406 5.1875C4.35967 5.95607 4.2535 6.74131 4.22719 7.53125H7.03125V5.1875H4.54406ZM7.96875 5.1875V7.53125H10.7719C10.7459 6.74134 10.64 5.9561 10.4559 5.1875H7.96875ZM4.22813 8.46875C4.25414 9.25865 4.35999 10.0439 4.54406 10.8125H7.03125V8.46875H4.22813ZM7.96875 8.46875V10.8125H10.4559C10.6312 10.0953 10.7428 9.305 10.7728 8.46875H7.96875ZM4.82344 11.75C4.95344 12.1125 5.09969 12.4462 5.26219 12.7513C5.77969 13.7216 6.40406 14.2981 7.03125 14.4903V11.75H4.82344ZM4.99406 14.0675C4.78469 13.7912 4.59754 13.4987 4.43437 13.1928C4.19159 12.7308 3.99079 12.2479 3.83438 11.75H2.11406C2.83216 12.7825 3.83183 13.5869 4.99406 14.0675ZM3.58125 10.8125C3.41197 10.0419 3.31406 9.25733 3.28875 8.46875H0.954375C1.0125 9.30313 1.22719 10.0934 1.56938 10.8125H3.58125ZM10.0059 14.0675C11.1682 13.5869 12.1678 12.7825 12.8859 11.75H11.1656C11.0092 12.2479 10.8084 12.7308 10.5656 13.1928C10.4025 13.4987 10.2153 13.7912 10.0059 14.0675ZM7.96875 11.75V14.4903C8.59688 14.2991 9.22031 13.7216 9.73781 12.7513C9.90031 12.4469 10.0466 12.1131 10.1766 11.75H7.96875ZM11.4188 10.8125H13.4306C13.7728 10.0934 13.9875 9.30313 14.0456 8.46875H11.7112C11.6859 9.25733 11.588 10.0419 11.4188 10.8125ZM14.0456 7.53125C13.9879 6.7186 13.7793 5.9238 13.4306 5.1875H11.4188C11.5819 5.92063 11.6831 6.70906 11.7112 7.53125H14.0456ZM10.5656 2.80719C10.7972 3.24219 10.9987 3.72594 11.1656 4.25H12.8859C12.1678 3.21749 11.1682 2.41307 10.0059 1.9325C10.2103 2.19875 10.3978 2.49312 10.5656 2.80719ZM10.1766 4.25C10.0549 3.90602 9.90822 3.57138 9.73781 3.24875C9.22031 2.27844 8.59688 1.70187 7.96875 1.50969V4.25H10.1766Z" fill="white"/>
</svg>
