<svg width="600" height="47" viewBox="0 0 600 47" fill="none" xmlns="http://www.w3.org/2000/svg">
<path d="M9.1453 0.628342V46.3717H0V0.628342H9.1453ZM23.3782 20.0755V27.6785H6.83556V20.0755H23.3782ZM25.1262 0.628342V8.2627H6.83556V0.628342H25.1262Z" fill="white"/>
<path d="M30.4947 0.628342H45.071C48.109 0.628342 50.6997 1.15196 52.8429 2.1992C54.9862 3.24643 56.6301 4.79635 57.7745 6.84893C58.919 8.90152 59.4912 11.4358 59.4912 14.4519C59.4912 16.9234 59.1583 19.0388 58.4924 20.7981C57.8266 22.5365 56.8798 23.9922 55.6521 25.1651C54.4244 26.3171 52.9574 27.2386 51.2511 27.9298L48.4732 29.5949H36.6436L36.6124 21.9606H44.8213C46.0698 21.9606 47.0998 21.6883 47.9114 21.1437C48.7437 20.5782 49.3575 19.7928 49.7529 18.7874C50.1691 17.7611 50.3772 16.5673 50.3772 15.2059C50.3772 13.7607 50.1899 12.525 49.8153 11.4987C49.4616 10.4514 48.8894 9.65553 48.0986 9.11096C47.3287 8.54545 46.3195 8.2627 45.071 8.2627H39.64V46.3717H30.4947V0.628342ZM51.1263 46.3717L42.7925 25.982L52.3748 25.9505L60.8958 45.9318V46.3717H51.1263Z" fill="white"/>
<path d="M97.7891 19.9499V27.5842C97.7891 30.8097 97.3937 33.6373 96.603 36.0668C95.8331 38.4755 94.7303 40.4967 93.2945 42.1303C91.8795 43.7431 90.1628 44.9579 88.1444 45.7747C86.1468 46.5916 83.9307 47 81.4961 47C79.0615 47 76.835 46.5916 74.8166 45.7747C72.819 44.9579 71.0919 43.7431 69.6353 42.1303C68.1995 40.4967 67.0863 38.4755 66.2956 36.0668C65.5049 33.6373 65.1095 30.8097 65.1095 27.5842V19.9499C65.1095 16.6406 65.4945 13.7502 66.2644 11.2787C67.0343 8.78632 68.1475 6.71279 69.6041 5.05816C71.0607 3.38258 72.7878 2.12589 74.7854 1.2881C76.783 0.429367 78.9991 0 81.4337 0C83.8683 0 86.0844 0.429367 88.082 1.2881C90.0796 2.12589 91.8067 3.38258 93.2633 5.05816C94.7199 6.71279 95.8331 8.78632 96.603 11.2787C97.3937 13.7502 97.7891 16.6406 97.7891 19.9499ZM88.7062 27.5842V19.887C88.7062 17.7088 88.5502 15.8552 88.2381 14.3262C87.9259 12.7763 87.4577 11.5091 86.8335 10.5247C86.2092 9.54033 85.4497 8.81774 84.555 8.35695C83.6602 7.89617 82.6198 7.66578 81.4337 7.66578C80.2476 7.66578 79.1968 7.89617 78.2812 8.35695C77.3865 8.81774 76.627 9.54033 76.0027 10.5247C75.3993 11.5091 74.9415 12.7763 74.6293 14.3262C74.338 15.8552 74.1924 17.7088 74.1924 19.887V27.5842C74.1924 29.6787 74.3484 31.4695 74.6606 32.9566C74.9727 34.4436 75.4409 35.6584 76.0651 36.6009C76.6894 37.5434 77.4489 38.2451 78.3437 38.7059C79.2592 39.1457 80.31 39.3656 81.4961 39.3656C82.6614 39.3656 83.6914 39.1457 84.5862 38.7059C85.5017 38.2451 86.2612 37.5434 86.8647 36.6009C87.4681 35.6584 87.9259 34.4436 88.2381 32.9566C88.5502 31.4695 88.7062 29.6787 88.7062 27.5842Z" fill="white"/>
<path d="M136.212 0.628342V46.3717H127.379L113.115 17.7507V46.3717H104.437V0.628342H113.146L127.535 29.5635V0.628342H136.212Z" fill="white"/>
<path d="M160.745 0.628342V46.3717H151.662V0.628342H160.745ZM172.044 0.628342V8.2627H140.582V0.628342H172.044Z" fill="white"/>
<path d="M203.413 38.7687V46.3717H183.655V38.7687H203.413ZM186.495 0.628342V46.3717H177.35V0.628342H186.495ZM200.76 19.1644V26.5475H183.655V19.1644H200.76ZM203.35 0.628342V8.2627H183.655V0.628342H203.35Z" fill="white"/>
<path d="M240.524 0.628342V46.3717H231.691L217.427 17.7507V46.3717H208.75V0.628342H217.458L231.847 29.5635V0.628342H240.524Z" fill="white"/>
<path d="M259.751 46.3717H251.73L251.792 38.7687H259.751C261.957 38.7687 263.674 38.3708 264.901 37.5749C266.129 36.779 266.993 35.5223 267.492 33.8048C268.012 32.0873 268.272 29.8358 268.272 27.0501V19.9184C268.272 17.803 268.137 16.0123 267.867 14.5461C267.596 13.059 267.138 11.8652 266.493 10.9646C265.848 10.043 264.985 9.3623 263.903 8.92246C262.821 8.48262 261.478 8.2627 259.876 8.2627H251.574V0.628342H259.876C262.498 0.628342 264.881 1.05771 267.024 1.91644C269.167 2.77518 271.009 4.03186 272.549 5.6865C274.088 7.32019 275.274 9.34135 276.107 11.75C276.939 14.1586 277.355 16.9024 277.355 19.9813V27.0501C277.355 30.15 276.939 32.8937 276.107 35.2814C275.274 37.6691 274.088 39.6903 272.549 41.3449C271.03 42.9786 269.188 44.2248 267.024 45.0836C264.86 45.9423 262.436 46.3717 259.751 46.3717ZM257.036 0.628342V46.3717H247.891V0.628342H257.036Z" fill="white"/>
<path d="M310.628 46.3717H302.606L302.669 38.7687H310.628C312.834 38.7687 314.55 38.3708 315.778 37.5749C317.006 36.779 317.869 35.5223 318.369 33.8048C318.889 32.0873 319.149 29.8358 319.149 27.0501V19.9184C319.149 17.803 319.014 16.0123 318.743 14.5461C318.473 13.059 318.015 11.8652 317.37 10.9646C316.725 10.043 315.861 9.3623 314.779 8.92246C313.697 8.48262 312.355 8.2627 310.753 8.2627H302.45V0.628342H310.753C313.375 0.628342 315.757 1.05771 317.9 1.91644C320.044 2.77518 321.885 4.03186 323.425 5.6865C324.965 7.32019 326.151 9.34135 326.983 11.75C327.816 14.1586 328.232 16.9024 328.232 19.9813V27.0501C328.232 30.15 327.816 32.8937 326.983 35.2814C326.151 37.6691 324.965 39.6903 323.425 41.3449C321.906 42.9786 320.064 44.2248 317.9 45.0836C315.736 45.9423 313.312 46.3717 310.628 46.3717ZM307.912 0.628342V46.3717H298.767V0.628342H307.912Z" fill="white"/>
<path d="M360.974 38.7687V46.3717H341.216V38.7687H360.974ZM344.057 0.628342V46.3717H334.911V0.628342H344.057ZM358.321 19.1644V26.5475H341.216V19.1644H358.321ZM360.911 0.628342V8.2627H341.216V0.628342H360.911Z" fill="white"/>
<path d="M380.451 36.6009L389.065 0.628342H398.928L385.757 46.3717H379.108L380.451 36.6009ZM373.084 0.628342L381.668 36.6009L383.072 46.3717H376.393L363.315 0.628342H373.084Z" fill="white"/>
<path d="M429.329 38.7687V46.3717H409.572V38.7687H429.329ZM412.412 0.628342V46.3717H403.267V0.628342H412.412ZM426.676 19.1644V26.5475H409.572V19.1644H426.676ZM429.267 0.628342V8.2627H409.572V0.628342H429.267Z" fill="white"/>
<path d="M459.887 38.7687V46.3717H441.003V38.7687H459.887ZM443.812 0.628342V46.3717H434.667V0.628342H443.812Z" fill="white"/>
<path d="M495.188 19.9499V27.5842C495.188 30.8097 494.793 33.6373 494.002 36.0668C493.232 38.4755 492.129 40.4967 490.693 42.1303C489.278 43.7431 487.562 44.9579 485.543 45.7747C483.546 46.5916 481.33 47 478.895 47C476.461 47 474.234 46.5916 472.216 45.7747C470.218 44.9579 468.491 43.7431 467.034 42.1303C465.598 40.4967 464.485 38.4755 463.695 36.0668C462.904 33.6373 462.508 30.8097 462.508 27.5842V19.9499C462.508 16.6406 462.893 13.7502 463.663 11.2787C464.433 8.78632 465.547 6.71279 467.003 5.05816C468.46 3.38258 470.187 2.12589 472.184 1.2881C474.182 0.429367 476.398 0 478.833 0C481.267 0 483.483 0.429367 485.481 1.2881C487.479 2.12589 489.206 3.38258 490.662 5.05816C492.119 6.71279 493.232 8.78632 494.002 11.2787C494.793 13.7502 495.188 16.6406 495.188 19.9499ZM486.105 27.5842V19.887C486.105 17.7088 485.949 15.8552 485.637 14.3262C485.325 12.7763 484.857 11.5091 484.232 10.5247C483.608 9.54033 482.849 8.81774 481.954 8.35695C481.059 7.89617 480.019 7.66578 478.833 7.66578C477.647 7.66578 476.596 7.89617 475.68 8.35695C474.785 8.81774 474.026 9.54033 473.402 10.5247C472.798 11.5091 472.34 12.7763 472.028 14.3262C471.737 15.8552 471.591 17.7088 471.591 19.887V27.5842C471.591 29.6787 471.747 31.4695 472.06 32.9566C472.372 34.4436 472.84 35.6584 473.464 36.6009C474.088 37.5434 474.848 38.2451 475.743 38.7059C476.658 39.1457 477.709 39.3656 478.895 39.3656C480.06 39.3656 481.09 39.1457 481.985 38.7059C482.901 38.2451 483.66 37.5434 484.264 36.6009C484.867 35.6584 485.325 34.4436 485.637 32.9566C485.949 31.4695 486.105 29.6787 486.105 27.5842Z" fill="white"/>
<path d="M517.318 30.2547H508.016V22.6203H517.318C518.608 22.6203 519.659 22.3271 520.47 21.7406C521.303 21.1542 521.906 20.3478 522.281 19.3215C522.655 18.2743 522.842 17.1014 522.842 15.8028C522.842 14.4833 522.645 13.258 522.249 12.127C521.875 10.975 521.282 10.043 520.47 9.33088C519.68 8.61876 518.629 8.2627 517.318 8.2627H510.95V46.3717H501.836V0.628342H517.318C520.377 0.628342 523.009 1.27763 525.215 2.5762C527.42 3.87478 529.106 5.66555 530.271 7.94853C531.457 10.2106 532.05 12.8077 532.05 15.74C532.05 18.6932 531.457 21.2589 530.271 23.4372C529.106 25.5945 527.42 27.2701 525.215 28.4639C523.009 29.6578 520.377 30.2547 517.318 30.2547Z" fill="white"/>
<path d="M564.23 38.7687V46.3717H544.473V38.7687H564.23ZM547.313 0.628342V46.3717H538.168V0.628342H547.313ZM561.577 19.1644V26.5475H544.473V19.1644H561.577ZM564.168 0.628342V8.2627H544.473V0.628342H564.168Z" fill="white"/>
<path d="M569.599 0.628342H584.175C587.213 0.628342 589.804 1.15196 591.947 2.1992C594.09 3.24643 595.734 4.79635 596.879 6.84893C598.023 8.90152 598.595 11.4358 598.595 14.4519C598.595 16.9234 598.263 19.0388 597.597 20.7981C596.931 22.5365 595.984 23.9922 594.756 25.1651C593.529 26.3171 592.062 27.2386 590.355 27.9298L587.577 29.5949H575.748L575.717 21.9606H583.926C585.174 21.9606 586.204 21.6883 587.016 21.1437C587.848 20.5782 588.462 19.7928 588.857 18.7874C589.273 17.7611 589.481 16.5673 589.481 15.2059C589.481 13.7607 589.294 12.525 588.92 11.4987C588.566 10.4514 587.994 9.65553 587.203 9.11096C586.433 8.54545 585.424 8.2627 584.175 8.2627H578.744V46.3717H569.599V0.628342ZM590.23 46.3717L581.897 25.982L591.479 25.9505L600 45.9318V46.3717H590.23Z" fill="white"/>
</svg>
