<svg width="96" height="16" viewBox="0 0 96 16" fill="none" xmlns="http://www.w3.org/2000/svg">
<path d="M8.0332 6.54297V8.90625H2.20312V6.54297H8.0332ZM3.01367 0.78125V15H0.152344V0.78125H3.01367ZM10.1035 0.78125V15H7.27148V0.78125H10.1035ZM22.4277 6.78711V9.16016C22.4277 10.1628 22.304 11.0417 22.0566 11.7969C21.8158 12.5456 21.4707 13.1738 21.0215 13.6816C20.5788 14.1829 20.0417 14.5605 19.4102 14.8145C18.7852 15.0684 18.0918 15.1953 17.3301 15.1953C16.5684 15.1953 15.8717 15.0684 15.2402 14.8145C14.6152 14.5605 14.0749 14.1829 13.6191 13.6816C13.1699 13.1738 12.8216 12.5456 12.5742 11.7969C12.3268 11.0417 12.2031 10.1628 12.2031 9.16016V6.78711C12.2031 5.75846 12.3236 4.86003 12.5645 4.0918C12.8053 3.31706 13.1536 2.67253 13.6094 2.1582C14.0651 1.63737 14.6055 1.24674 15.2305 0.986328C15.8555 0.719401 16.5488 0.585938 17.3105 0.585938C18.0723 0.585938 18.7656 0.719401 19.3906 0.986328C20.0156 1.24674 20.556 1.63737 21.0117 2.1582C21.4674 2.67253 21.8158 3.31706 22.0566 4.0918C22.304 4.86003 22.4277 5.75846 22.4277 6.78711ZM19.5859 9.16016V6.76758C19.5859 6.09049 19.5371 5.51432 19.4395 5.03906C19.3418 4.55729 19.1953 4.16341 19 3.85742C18.8047 3.55143 18.5671 3.32682 18.2871 3.18359C18.0072 3.04036 17.6816 2.96875 17.3105 2.96875C16.9395 2.96875 16.6107 3.04036 16.3242 3.18359C16.0443 3.32682 15.8066 3.55143 15.6113 3.85742C15.4225 4.16341 15.2793 4.55729 15.1816 5.03906C15.0905 5.51432 15.0449 6.09049 15.0449 6.76758V9.16016C15.0449 9.8112 15.0938 10.3678 15.1914 10.8301C15.2891 11.2923 15.4355 11.6699 15.6309 11.9629C15.8262 12.2559 16.0638 12.474 16.3438 12.6172C16.6302 12.7539 16.959 12.8223 17.3301 12.8223C17.6947 12.8223 18.0169 12.7539 18.2969 12.6172C18.5833 12.474 18.821 12.2559 19.0098 11.9629C19.1986 11.6699 19.3418 11.2923 19.4395 10.8301C19.5371 10.3678 19.5859 9.8112 19.5859 9.16016ZM25.5234 0.78125H28.0332L30.9336 10.5078L33.8242 0.78125H36.041L31.998 15H29.8594L25.5234 0.78125ZM24.5078 0.78125H26.9004L27.2715 10.1562V15H24.5078V0.78125ZM34.9473 0.78125H37.3496V15H34.5957V10.1562L34.9473 0.78125ZM47.8379 12.6367V15H41.6562V12.6367H47.8379ZM42.5449 0.78125V15H39.6836V0.78125H42.5449ZM47.0078 6.54297V8.83789H41.6562V6.54297H47.0078ZM47.8184 0.78125V3.1543H41.6562V0.78125H47.8184ZM58.9609 9.99023H56.0508V7.61719H58.9609C59.3646 7.61719 59.6934 7.52604 59.9473 7.34375C60.2077 7.16146 60.3965 6.91081 60.5137 6.5918C60.6309 6.26628 60.6895 5.90169 60.6895 5.49805C60.6895 5.08789 60.6276 4.70703 60.5039 4.35547C60.3867 3.9974 60.2012 3.70768 59.9473 3.48633C59.6999 3.26497 59.3711 3.1543 58.9609 3.1543H56.9688V15H54.1172V0.78125H58.9609C59.918 0.78125 60.7415 0.983073 61.4316 1.38672C62.1217 1.79036 62.6491 2.34701 63.0137 3.05664C63.3848 3.75977 63.5703 4.56706 63.5703 5.47852C63.5703 6.39648 63.3848 7.19401 63.0137 7.87109C62.6491 8.54167 62.1217 9.0625 61.4316 9.43359C60.7415 9.80469 59.918 9.99023 58.9609 9.99023ZM68.8926 3.32031L65.8359 15H62.8184L67.2617 0.78125H69.1465L68.8926 3.32031ZM71.3047 15L68.2285 3.32031L67.9453 0.78125H69.8594L74.3418 15H71.3047ZM71.4121 9.69727V12.0703H64.9961V9.69727H71.4121ZM85.1426 7.5293V13.3887C84.9408 13.6035 84.6445 13.8542 84.2539 14.1406C83.8698 14.4206 83.3652 14.668 82.7402 14.8828C82.1217 15.0911 81.3665 15.1953 80.4746 15.1953C79.6868 15.1953 78.9707 15.0716 78.3262 14.8242C77.6882 14.5768 77.138 14.2025 76.6758 13.7012C76.2201 13.1934 75.8717 12.5618 75.6309 11.8066C75.39 11.0449 75.2695 10.1432 75.2695 9.10156V6.67969C75.2695 5.65104 75.3835 4.75586 75.6113 3.99414C75.8457 3.22591 76.1842 2.58789 76.627 2.08008C77.0697 1.57227 77.597 1.19466 78.209 0.947266C78.8275 0.69987 79.5241 0.576172 80.2988 0.576172C81.3665 0.576172 82.2422 0.755208 82.9258 1.11328C83.6159 1.47135 84.1367 2.00195 84.4883 2.70508C84.8464 3.4082 85.0612 4.27083 85.1328 5.29297H82.3691C82.3236 4.69401 82.2227 4.22526 82.0664 3.88672C81.9167 3.54818 81.7051 3.30729 81.4316 3.16406C81.1582 3.01432 80.8034 2.93945 80.3672 2.93945C79.9896 2.93945 79.6608 3.00781 79.3809 3.14453C79.1009 3.27474 78.8665 3.48958 78.6777 3.78906C78.4889 4.08854 78.349 4.47266 78.2578 4.94141C78.1667 5.41016 78.1211 5.98307 78.1211 6.66016V9.10156C78.1211 9.77214 78.1732 10.3451 78.2773 10.8203C78.3815 11.2956 78.5345 11.6829 78.7363 11.9824C78.9447 12.2819 79.2051 12.5 79.5176 12.6367C79.8366 12.7669 80.2109 12.832 80.6406 12.832C80.9857 12.832 81.2624 12.7962 81.4707 12.7246C81.679 12.653 81.8451 12.5781 81.9688 12.5C82.099 12.4154 82.2064 12.3503 82.291 12.3047V9.6875H80.25V7.5293H85.1426ZM95.3574 12.6367V15H89.1758V12.6367H95.3574ZM90.0645 0.78125V15H87.2031V0.78125H90.0645ZM94.5273 6.54297V8.83789H89.1758V6.54297H94.5273ZM95.3379 0.78125V3.1543H89.1758V0.78125H95.3379Z" fill="white"/>
</svg>
