<svg width="15" height="15" viewBox="0 0 15 15" fill="none" xmlns="http://www.w3.org/2000/svg">
<rect width="15" height="15" rx="5" fill="white"/>
<path d="M0 1.07438C0 0.480938 0.493125 0 1.10156 0H13.8984C14.5069 0 15 0.480938 15 1.07438V13.9256C15 14.5191 14.5069 15 13.8984 15H1.10156C0.493125 15 0 14.5191 0 13.9256V1.07438ZM4.63406 12.5569V5.78344H2.38313V12.5569H4.63406ZM3.50906 4.85813C4.29375 4.85813 4.78219 4.33875 4.78219 3.68813C4.76813 3.02344 4.29469 2.51813 3.52406 2.51813C2.75344 2.51813 2.25 3.02437 2.25 3.68813C2.25 4.33875 2.73844 4.85813 3.49406 4.85813H3.50906ZM8.11031 12.5569V8.77406C8.11031 8.57156 8.12531 8.36906 8.18531 8.22469C8.3475 7.82062 8.71781 7.40156 9.34031 7.40156C10.155 7.40156 10.4803 8.02219 10.4803 8.93344V12.5569H12.7312V8.67188C12.7312 6.59062 11.6213 5.62313 10.14 5.62313C8.94563 5.62313 8.41031 6.27938 8.11031 6.74156V6.765H8.09531C8.10029 6.75717 8.10529 6.74936 8.11031 6.74156V5.78344H5.86031C5.88844 6.41906 5.86031 12.5569 5.86031 12.5569H8.11031Z" fill="#00A4EA"/>
</svg>
