<svg width="25" height="25" viewBox="0 0 25 25" fill="none" xmlns="http://www.w3.org/2000/svg">
<g clip-path="url(#clip0_529_2)">
<mask id="mask0_529_2" style="mask-type:alpha" maskUnits="userSpaceOnUse" x="0" y="0" width="25" height="25">
<path d="M12.5 25C19.4036 25 25 19.4036 25 12.5C25 5.59644 19.4036 0 12.5 0C5.59644 0 0 5.59644 0 12.5C0 19.4036 5.59644 25 12.5 25Z" fill="black"/>
</mask>
<g mask="url(#mask0_529_2)">
<path d="M12.5 25C19.4036 25 25 19.4036 25 12.5C25 5.59644 19.4036 0 12.5 0C5.59644 0 0 5.59644 0 12.5C0 19.4036 5.59644 25 12.5 25Z" fill="black"/>
<path d="M20.765 21.8778L9.60306 7.5H7.5V17.4958H9.18244V9.63661L19.4443 22.8951C19.9074 22.5853 20.3485 22.2451 20.765 21.8778Z" fill="url(#paint0_linear_529_2)"/>
<path d="M17.6393 7.5H15.9727V17.5H17.6393V7.5Z" fill="url(#paint1_linear_529_2)"/>
</g>
</g>
<defs>
<linearGradient id="paint0_linear_529_2" x1="15.1389" y1="16.1806" x2="20.0694" y2="22.2917" gradientUnits="userSpaceOnUse">
<stop stop-color="white"/>
<stop offset="1" stop-color="white" stop-opacity="0"/>
</linearGradient>
<linearGradient id="paint1_linear_529_2" x1="16.806" y1="7.5" x2="16.7781" y2="14.8438" gradientUnits="userSpaceOnUse">
<stop stop-color="white"/>
<stop offset="1" stop-color="white" stop-opacity="0"/>
</linearGradient>
<clipPath id="clip0_529_2">
<rect width="25" height="25" fill="white"/>
</clipPath>
</defs>
</svg>
