<svg width="599" height="50" viewBox="0 0 599 50" fill="none" xmlns="http://www.w3.org/2000/svg">
<path d="M22.2349 36.4891C22.2349 35.6381 22.1577 34.8634 22.0035 34.1651C21.8493 33.4669 21.5187 32.8231 21.012 32.234C20.5272 31.6448 19.8111 31.0556 18.8636 30.4664C17.9382 29.8772 16.7263 29.2662 15.228 28.6334C13.4432 27.8915 11.7135 27.1059 10.0389 26.2767C8.36427 25.4257 6.85492 24.4437 5.51082 23.3308C4.16673 22.2179 3.09807 20.9086 2.30483 19.403C1.53363 17.8755 1.14803 16.0861 1.14803 14.0349C1.14803 12.0273 1.5116 10.2052 2.23873 8.56862C2.98789 6.93201 4.04554 5.53544 5.41167 4.37891C6.7778 3.20055 8.37528 2.29496 10.2041 1.66214C12.055 1.02932 14.1152 0.712908 16.3848 0.712908C19.4696 0.712908 22.1357 1.34573 24.3832 2.61137C26.6527 3.87701 28.4045 5.61182 29.6384 7.81578C30.8943 10.0197 31.5223 12.551 31.5223 15.4096H21.8713C21.8713 14.0567 21.673 12.8674 21.2764 11.8418C20.9018 10.7944 20.2958 9.9761 19.4585 9.38692C18.6212 8.79774 17.5416 8.50316 16.2195 8.50316C14.9856 8.50316 13.961 8.7541 13.1457 9.25599C12.3525 9.73607 11.7575 10.4016 11.3609 11.2527C10.9863 12.0819 10.7991 13.0202 10.7991 14.0676C10.7991 14.8532 10.9863 15.5624 11.3609 16.1952C11.7575 16.8062 12.2974 17.3627 12.9805 17.8645C13.6635 18.3446 14.4678 18.8138 15.3932 19.272C16.3407 19.7303 17.3763 20.1776 18.5 20.614C20.6814 21.4651 22.6094 22.4034 24.2841 23.429C25.9587 24.4328 27.3578 25.5675 28.4816 26.8331C29.6053 28.077 30.4537 29.4845 31.0265 31.0556C31.5994 32.6267 31.8859 34.4161 31.8859 36.4237C31.8859 38.4094 31.5333 40.2206 30.8282 41.8572C30.1452 43.472 29.1426 44.8686 27.8206 46.0469C26.4985 47.2034 24.901 48.0981 23.0281 48.7309C21.1772 49.3638 19.106 49.6802 16.8144 49.6802C14.589 49.6802 12.4847 49.3747 10.5016 48.7637C8.51851 48.1309 6.76678 47.1816 5.24641 45.916C3.74808 44.6285 2.56924 43.0028 1.70991 41.0389C0.850567 39.0531 0.420898 36.7073 0.420898 34.0015H10.105C10.105 35.4417 10.2482 36.6746 10.5346 37.7002C10.8211 38.704 11.2618 39.5114 11.8567 40.1224C12.4516 40.7116 13.1788 41.1589 14.0381 41.4644C14.9195 41.7481 15.922 41.8899 17.0458 41.8899C18.3238 41.8899 19.3373 41.6499 20.0865 41.1698C20.8577 40.6898 21.4086 40.046 21.7391 39.2386C22.0696 38.4312 22.2349 37.5147 22.2349 36.4891Z" fill="white"/>
<path d="M72.2417 21.4978V29.4517C72.2417 32.8122 71.8231 35.7581 70.9858 38.2894C70.1705 40.7989 69.0027 42.9046 67.4823 44.6067C65.984 46.2869 64.1661 47.5526 62.0288 48.4036C59.9135 49.2547 57.5669 49.6802 54.9889 49.6802C52.4108 49.6802 50.0532 49.2547 47.9158 48.4036C45.8005 47.5526 43.9717 46.2869 42.4293 44.6067C40.9089 42.9046 39.7301 40.7989 38.8928 38.2894C38.0555 35.7581 37.6368 32.8122 37.6368 29.4517V21.4978C37.6368 18.05 38.0445 15.0387 38.8597 12.4637C39.675 9.86699 40.8538 7.70667 42.3962 5.98278C43.9387 4.23707 45.7675 2.92778 47.8828 2.05493C49.9981 1.16025 52.3447 0.712908 54.9228 0.712908C57.5008 0.712908 59.8474 1.16025 61.9627 2.05493C64.078 2.92778 65.9069 4.23707 67.4493 5.98278C68.9917 7.70667 70.1705 9.86699 70.9858 12.4637C71.8231 15.0387 72.2417 18.05 72.2417 21.4978ZM62.6237 29.4517V21.4323C62.6237 19.1629 62.4585 17.2317 62.128 15.6388C61.7975 14.024 61.3017 12.7038 60.6407 11.6782C59.9796 10.6526 59.1754 9.89973 58.2279 9.41966C57.2804 8.93958 56.1787 8.69955 54.9228 8.69955C53.6668 8.69955 52.5541 8.93958 51.5846 9.41966C50.6371 9.89973 49.8328 10.6526 49.1718 11.6782C48.5328 12.7038 48.048 14.024 47.7175 15.6388C47.4091 17.2317 47.2548 19.1629 47.2548 21.4323V29.4517C47.2548 31.6339 47.4201 33.4996 47.7506 35.0489C48.0811 36.5982 48.5769 37.8639 49.2379 38.8458C49.8989 39.8278 50.7032 40.5588 51.6507 41.0389C52.6202 41.4971 53.7329 41.7263 54.9889 41.7263C56.2228 41.7263 57.3135 41.4971 58.2609 41.0389C59.2305 40.5588 60.0347 39.8278 60.6737 38.8458C61.3127 37.8639 61.7975 36.5982 62.128 35.0489C62.4585 33.4996 62.6237 31.6339 62.6237 29.4517Z" fill="white"/>
<path d="M88.9658 1.36755V49.0255H79.2817V1.36755H88.9658ZM104.037 21.6287V29.5499H86.5199V21.6287H104.037ZM105.888 1.36755V9.32146H86.5199V1.36755H105.888Z" fill="white"/>
<path d="M131.371 1.36755V49.0255H121.753V1.36755H131.371ZM143.335 1.36755V9.32146H110.02V1.36755H143.335Z" fill="white"/>
<path d="M159.299 41.8899L167 1.36755H172.09L173.611 7.65212L165.348 49.0255H159.828L159.299 41.8899ZM156.655 1.36755L162.869 41.9881L161.811 49.0255H155.73L147.103 1.36755H156.655ZM179.196 41.8245L185.377 1.36755H194.896L186.335 49.0255H180.221L179.196 41.8245ZM175.032 1.36755L182.799 42.1191L182.171 49.0255H176.651L168.421 7.58666L169.975 1.36755H175.032Z" fill="white"/>
<path d="M216.214 9.8779L205.869 49.0255H195.656L210.694 1.36755H217.073L216.214 9.8779ZM224.378 49.0255L213.966 9.8779L213.008 1.36755H219.486L234.657 49.0255H224.378ZM224.741 31.252V39.2059H203.026V31.252H224.741Z" fill="white"/>
<path d="M239.284 1.36755H254.719C257.936 1.36755 260.679 1.91309 262.949 3.00416C265.218 4.09523 266.959 5.71001 268.171 7.84851C269.383 9.98701 269.989 12.6274 269.989 15.7697C269.989 18.3446 269.636 20.5486 268.931 22.3816C268.226 24.1928 267.223 25.7093 265.923 26.9313C264.623 28.1315 263.07 29.0917 261.263 29.8118L258.321 31.5466H245.795L245.762 23.5927H254.454C255.776 23.5927 256.867 23.309 257.726 22.7416C258.608 22.1525 259.258 21.3342 259.677 20.2867C260.117 19.2175 260.338 17.9737 260.338 16.5553C260.338 15.0496 260.139 13.7621 259.743 12.6929C259.368 11.6018 258.762 10.7726 257.925 10.2052C257.11 9.61605 256.041 9.32146 254.719 9.32146H248.968V49.0255H239.284V1.36755ZM261.131 49.0255L252.306 27.7824L262.453 27.7496L271.476 48.5673V49.0255H261.131Z" fill="white"/>
<path d="M304.329 41.1044V49.0255H283.407V41.1044H304.329ZM286.415 1.36755V49.0255H276.731V1.36755H286.415ZM301.52 20.6795V28.3716H283.407V20.6795H301.52ZM304.263 1.36755V9.32146H283.407V1.36755H304.263Z" fill="white"/>
<path d="M353.179 41.1044V49.0255H332.258V41.1044H353.179ZM335.265 1.36755V49.0255H325.581V1.36755H335.265ZM350.37 20.6795V28.3716H332.258V20.6795H350.37ZM353.113 1.36755V9.32146H332.258V1.36755H353.113Z" fill="white"/>
<path d="M392.477 1.36755V49.0255H383.124L368.019 19.2066V49.0255H358.831V1.36755H368.052L383.289 31.5138V1.36755H392.477Z" fill="white"/>
<path d="M432.965 23.9855V43.6247C432.282 44.3448 431.28 45.185 429.958 46.1451C428.658 47.0834 426.95 47.9126 424.835 48.6327C422.741 49.331 420.185 49.6802 417.167 49.6802C414.501 49.6802 412.077 49.2656 409.895 48.4364C407.736 47.6071 405.874 46.3524 404.31 44.6722C402.767 42.9701 401.588 40.8534 400.773 38.3221C399.958 35.769 399.55 32.7468 399.55 29.2553V21.1378C399.55 17.69 399.936 14.6895 400.707 12.1364C401.5 9.56149 402.646 7.42299 404.144 5.72092C405.643 4.01885 407.428 2.75321 409.499 1.924C411.592 1.09478 413.95 0.680176 416.572 0.680176C420.185 0.680176 423.149 1.28026 425.463 2.48044C427.798 3.68062 429.561 5.45907 430.751 7.81578C431.963 10.1725 432.69 13.0638 432.932 16.4898H423.579C423.424 14.4822 423.083 12.9111 422.554 11.7764C422.047 10.6417 421.331 9.83426 420.406 9.35419C419.48 8.8523 418.279 8.60135 416.803 8.60135C415.525 8.60135 414.412 8.83048 413.465 9.28873C412.517 9.72515 411.724 10.4453 411.085 11.449C410.446 12.4528 409.973 13.7403 409.664 15.3114C409.356 16.8826 409.201 18.8029 409.201 21.0723V29.2553C409.201 31.5029 409.378 33.4232 409.73 35.0162C410.083 36.6091 410.6 37.9075 411.284 38.9113C411.989 39.9151 412.87 40.6461 413.928 41.1044C415.007 41.5408 416.274 41.759 417.729 41.759C418.896 41.759 419.833 41.639 420.538 41.3989C421.243 41.1589 421.805 40.908 422.224 40.6461C422.664 40.3624 423.028 40.1442 423.314 39.9915V31.2193H416.407V23.9855H432.965Z" fill="white"/>
<path d="M449.987 1.36755V49.0255H440.369V1.36755H449.987Z" fill="white"/>
<path d="M491.896 1.36755V49.0255H482.543L467.438 19.2066V49.0255H458.25V1.36755H467.471L482.708 31.5138V1.36755H491.896Z" fill="white"/>
<path d="M527.294 41.1044V49.0255H506.373V41.1044H527.294ZM509.38 1.36755V49.0255H499.696V1.36755H509.38ZM524.485 20.6795V28.3716H506.373V20.6795H524.485ZM527.228 1.36755V9.32146H506.373V1.36755H527.228Z" fill="white"/>
<path d="M560.544 41.1044V49.0255H539.622V41.1044H560.544ZM542.63 1.36755V49.0255H532.946V1.36755H542.63ZM557.735 20.6795V28.3716H539.622V20.6795H557.735ZM560.478 1.36755V9.32146H539.622V1.36755H560.478Z" fill="white"/>
<path d="M566.229 1.36755H581.664C584.881 1.36755 587.624 1.91309 589.894 3.00416C592.163 4.09523 593.904 5.71001 595.116 7.84851C596.328 9.98701 596.934 12.6274 596.934 15.7697C596.934 18.3446 596.581 20.5486 595.876 22.3816C595.171 24.1928 594.168 25.7093 592.868 26.9313C591.568 28.1315 590.015 29.0917 588.208 29.8118L585.266 31.5466H572.74L572.707 23.5927H581.399C582.721 23.5927 583.812 23.309 584.672 22.7416C585.553 22.1525 586.203 21.3342 586.622 20.2867C587.062 19.2175 587.283 17.9737 587.283 16.5553C587.283 15.0496 587.084 13.7621 586.688 12.6929C586.313 11.6018 585.707 10.7726 584.87 10.2052C584.055 9.61605 582.986 9.32146 581.664 9.32146H575.913V49.0255H566.229V1.36755ZM588.076 49.0255L579.251 27.7824L589.398 27.7496L598.421 48.5673V49.0255H588.076Z" fill="white"/>
</svg>
