<svg width="601" height="66" viewBox="0 0 601 66" fill="none" xmlns="http://www.w3.org/2000/svg">
<path d="M16.3922 54.9389L26.4592 1.45006H33.1129L35.1003 9.74558L24.2989 64.3578H17.0835L16.3922 54.9389ZM12.9357 1.45006L21.0584 55.0686L19.6758 64.3578H11.726L0.449219 1.45006H12.9357ZM42.4021 54.8525L50.4816 1.45006H62.9249L51.7346 64.3578H43.7415L42.4021 54.8525ZM36.9582 1.45006L47.1116 55.2414L46.2907 64.3578H39.0753L28.317 9.65917L30.3477 1.45006H36.9582Z" fill="white"/>
<path d="M106.001 53.902V64.3578H78.6519V53.902H106.001ZM82.5836 1.45006V64.3578H69.9243V1.45006H82.5836ZM102.329 26.9415V37.0949H78.6519V26.9415H102.329ZM105.915 1.45006V11.9491H78.6519V1.45006H105.915Z" fill="white"/>
<path d="M134.603 36.9221H121.728L121.685 27.7624H132.659C134.387 27.7624 135.799 27.4744 136.893 26.8983C138.017 26.2934 138.838 25.4149 139.356 24.2628C139.903 23.0818 140.177 21.656 140.177 19.9854C140.177 18.0555 139.932 16.5145 139.443 15.3623C138.953 14.1814 138.161 13.3173 137.066 12.77C135.972 12.2227 134.546 11.9491 132.789 11.9491H126.049V64.3578H113.389V1.45006H132.789C135.928 1.45006 138.737 1.7957 141.214 2.487C143.691 3.17829 145.794 4.22963 147.522 5.64103C149.25 7.05242 150.561 8.83826 151.454 10.9986C152.375 13.1588 152.836 15.708 152.836 18.646C152.836 21.2383 152.318 23.6291 151.281 25.8182C150.244 28.0073 148.617 29.7931 146.399 31.1757C144.21 32.5583 141.344 33.336 137.801 33.5088L134.603 36.9221ZM134.171 64.3578H118.142L123.197 53.902H134.171C135.842 53.902 137.196 53.5419 138.233 52.8218C139.27 52.1017 140.019 51.1368 140.479 49.9271C140.94 48.6885 141.171 47.2771 141.171 45.6929C141.171 43.907 140.955 42.3516 140.523 41.0266C140.119 39.7017 139.443 38.6935 138.492 38.0022C137.541 37.2821 136.26 36.9221 134.647 36.9221H123.759L123.845 27.7624H137.066L140.047 31.3917C143.417 31.2765 146.111 31.9246 148.127 33.336C150.143 34.7186 151.583 36.5332 152.447 38.7799C153.34 40.9978 153.787 43.3598 153.787 45.8657C153.787 49.8982 153.024 53.2971 151.497 56.0623C149.999 58.7987 147.796 60.8725 144.886 62.2839C141.977 63.6665 138.406 64.3578 134.171 64.3578Z" fill="white"/>
<path d="M199.888 64.3578H188.784L188.87 53.902H199.888C202.941 53.902 205.317 53.3547 207.017 52.2602C208.716 51.1656 209.911 49.4374 210.603 47.0755C211.323 44.7135 211.683 41.6171 211.683 37.7862V27.9785C211.683 25.0693 211.496 22.6065 211.121 20.5903C210.747 18.5452 210.113 16.9034 209.22 15.6648C208.327 14.3974 207.132 13.4613 205.634 12.8564C204.136 12.2515 202.278 11.9491 200.06 11.9491H188.568V1.45006H200.06C203.69 1.45006 206.988 2.04054 209.955 3.2215C212.921 4.40246 215.47 6.13069 217.602 8.4062C219.733 10.6529 221.375 13.4325 222.527 16.7449C223.68 20.0574 224.256 23.8307 224.256 28.0649V37.7862C224.256 42.0492 223.68 45.8225 222.527 49.1061C221.375 52.3898 219.733 55.1694 217.602 57.4449C215.499 59.6916 212.95 61.4054 209.955 62.5864C206.959 63.7673 203.603 64.3578 199.888 64.3578ZM196.129 1.45006V64.3578H183.469V1.45006H196.129Z" fill="white"/>
<path d="M269.579 53.902V64.3578H242.229V53.902H269.579ZM246.161 1.45006V64.3578H233.502V1.45006H246.161ZM265.906 26.9415V37.0949H242.229V26.9415H265.906ZM269.492 1.45006V11.9491H242.229V1.45006H269.492Z" fill="white"/>
<path d="M296.539 50.9208L308.464 1.45006H322.117L303.884 64.3578H294.681L296.539 50.9208ZM286.342 1.45006L298.224 50.9208L300.168 64.3578H290.922L272.819 1.45006H286.342Z" fill="white"/>
<path d="M364.199 53.902V64.3578H336.85V53.902H364.199ZM340.782 1.45006V64.3578H328.123V1.45006H340.782ZM360.527 26.9415V37.0949H336.85V26.9415H360.527ZM364.113 1.45006V11.9491H336.85V1.45006H364.113Z" fill="white"/>
<path d="M406.498 53.902V64.3578H380.358V53.902H406.498ZM384.247 1.45006V64.3578H371.588V1.45006H384.247Z" fill="white"/>
<path d="M455.364 28.0217V38.5207C455.364 42.9565 454.817 46.845 453.722 50.1863C452.656 53.4987 451.13 56.2783 449.142 58.525C447.184 60.7429 444.807 62.4136 442.013 63.5369C439.248 64.6603 436.18 65.2219 432.81 65.2219C429.44 65.2219 426.358 64.6603 423.564 63.5369C420.799 62.4136 418.408 60.7429 416.392 58.525C414.405 56.2783 412.864 53.4987 411.769 50.1863C410.675 46.845 410.127 42.9565 410.127 38.5207V28.0217C410.127 23.4707 410.66 19.4957 411.726 16.0968C412.792 12.6692 414.333 9.81759 416.349 7.54208C418.365 5.23777 420.756 3.50954 423.521 2.35738C426.286 1.17642 429.354 0.585938 432.724 0.585938C436.094 0.585938 439.162 1.17642 441.927 2.35738C444.692 3.50954 447.083 5.23777 449.099 7.54208C451.115 9.81759 452.656 12.6692 453.722 16.0968C454.817 19.4957 455.364 23.4707 455.364 28.0217ZM442.791 38.5207V27.9353C442.791 24.9397 442.575 22.3905 442.143 20.2878C441.711 18.1563 441.063 16.4137 440.199 15.0599C439.334 13.7061 438.283 12.7124 437.045 12.0787C435.806 11.445 434.366 11.1282 432.724 11.1282C431.082 11.1282 429.628 11.445 428.36 12.0787C427.122 12.7124 426.07 13.7061 425.206 15.0599C424.371 16.4137 423.737 18.1563 423.305 20.2878C422.902 22.3905 422.7 24.9397 422.7 27.9353V38.5207C422.7 41.4011 422.916 43.8638 423.348 45.9089C423.78 47.954 424.428 49.6246 425.293 50.9208C426.157 52.217 427.208 53.1819 428.447 53.8156C429.714 54.4205 431.169 54.7229 432.81 54.7229C434.423 54.7229 435.849 54.4205 437.088 53.8156C438.355 53.1819 439.407 52.217 440.242 50.9208C441.077 49.6246 441.711 47.954 442.143 45.9089C442.575 43.8638 442.791 41.4011 442.791 38.5207Z" fill="white"/>
<path d="M485.997 42.1932H473.121V31.6942H485.997C487.783 31.6942 489.237 31.2909 490.361 30.4844C491.513 29.6779 492.348 28.5689 492.867 27.1576C493.385 25.7174 493.644 24.1043 493.644 22.3185C493.644 20.5038 493.371 18.8188 492.823 17.2634C492.305 15.6792 491.484 14.3974 490.361 13.4181C489.266 12.4388 487.811 11.9491 485.997 11.9491H477.183V64.3578H464.567V1.45006H485.997C490.231 1.45006 493.875 2.34298 496.928 4.12882C499.981 5.91466 502.314 8.3774 503.927 11.517C505.569 14.6278 506.39 18.1995 506.39 22.2321C506.39 26.2934 505.569 29.8219 503.927 32.8175C502.314 35.7843 499.981 38.0886 496.928 39.7305C493.875 41.3723 490.231 42.1932 485.997 42.1932Z" fill="white"/>
<path d="M550.935 53.902V64.3578H523.586V53.902H550.935ZM527.518 1.45006V64.3578H514.858V1.45006H527.518ZM547.263 26.9415V37.0949H523.586V26.9415H547.263ZM550.849 1.45006V11.9491H523.586V1.45006H550.849Z" fill="white"/>
<path d="M558.367 1.45006H578.544C582.749 1.45006 586.335 2.17015 589.302 3.61035C592.269 5.05055 594.544 7.18204 596.129 10.0048C597.713 12.8276 598.505 16.3129 598.505 20.4606C598.505 23.8595 598.044 26.7687 597.122 29.1882C596.201 31.579 594.89 33.5808 593.191 35.1938C591.491 36.7781 589.461 38.0454 587.099 38.996L583.253 41.2859H566.878L566.835 30.7868H578.198C579.926 30.7868 581.352 30.4124 582.476 29.6635C583.628 28.8858 584.477 27.8056 585.025 26.4231C585.601 25.0117 585.889 23.3698 585.889 21.4976C585.889 19.5101 585.63 17.8107 585.111 16.3993C584.621 14.9591 583.829 13.8645 582.735 13.1156C581.669 12.3379 580.272 11.9491 578.544 11.9491H571.026V64.3578H558.367V1.45006ZM586.926 64.3578L575.39 36.3172L588.654 36.274L600.449 63.7529V64.3578H586.926Z" fill="white"/>
</svg>
